<?xml version="1.0" encoding="UTF-8"?>
<svg width="220.348" height="180.903" xmlns="http://www.w3.org/2000/svg" xmlns:xlink="http://www.w3.org/1999/xlink" clip-rule="evenodd" stroke-miterlimit="10" viewBox="0 0 220.35 180.90">
    <desc>SVG generated by Lineform</desc>
    <defs/>
    <g>
        <g>
            <path d="M 64.08 77.66 L 64.08 61.33 L 66.30 61.33 L 74.86 74.14 L 74.86 61.33 L 76.93 61.33 L 76.93 77.66 L 74.71 77.66 L 66.16 64.84 L 66.16 77.66 L 64.08 77.66 L 64.08 77.66 Z M 64.08 77.66 " fill="rgb(0, 0, 0)"/>
        </g>
        <g>
            <path d="M 96.76 134.23 L 96.76 117.90 L 98.98 117.90 L 107.54 130.71 L 107.54 117.90 L 109.61 117.90 L 109.61 134.23 L 107.39 134.23 L 98.84 121.42 L 98.84 134.23 L 96.76 134.23 Z M 96.76 134.23 " fill="rgb(0, 0, 0)"/>
        </g>
        <path d="M 71.37 105.92 L 69.75 106.87 L 69.75 79.75 L 71.37 79.75 L 71.37 105.92 Z M 71.37 105.92 " fill="rgb(0, 0, 0)"/>
        <path d="M 93.83 118.89 L 93.03 120.26 L 69.75 106.87 L 71.37 105.92 L 93.83 118.89 Z M 93.83 118.89 " fill="rgb(0, 0, 0)"/>
        <path d="M 135.02 105.92 L 135.87 106.39 L 135.92 107.25 L 113.31 120.31 L 112.50 118.94 L 135.02 105.92 Z M 135.02 105.92 " fill="rgb(0, 0, 0)"/>
        <path d="M 135.02 69.15 L 135.87 68.68 L 136.68 69.25 L 136.68 105.78 L 135.87 106.39 L 135.02 105.92 L 135.02 69.15 Z M 135.02 69.15 " fill="rgb(0, 0, 0)"/>
        <path d="M 140.72 72.81 L 142.33 72.81 L 142.33 102.26 L 140.72 102.26 L 140.72 72.81 Z M 140.72 72.81 " fill="rgb(0, 0, 0)"/>
        <path d="M 103.19 50.77 L 103.19 48.92 L 135.92 67.82 L 135.87 68.68 L 135.02 69.15 L 103.19 50.77 Z M 103.19 50.77 " fill="rgb(0, 0, 0)"/>
        <path d="M 80.68 63.79 L 79.87 62.36 L 103.19 48.92 L 103.19 50.77 L 80.68 63.79 Z M 80.68 63.79 " fill="rgb(0, 0, 0)"/>
        <g>
            <path d="M 165.25 127.01 L 165.25 110.68 L 167.48 110.68 L 176.03 123.50 L 176.03 110.68 L 178.11 110.68 L 178.11 127.01 L 175.89 127.01 L 167.33 114.20 L 167.33 127.01 L 165.25 127.01 Z M 165.25 127.01 " fill="rgb(0, 0, 0)"/>
        </g>
        <g>
            <path d="M 165.25 66.02 L 165.25 49.69 L 167.48 49.69 L 176.03 62.51 L 176.03 49.69 L 178.11 49.69 L 178.11 66.02 L 175.89 66.02 L 167.33 53.21 L 167.33 66.02 L 165.25 66.02 L 165.25 66.02 Z M 165.25 66.02 " fill="rgb(0, 0, 0)"/>
        </g>
        <path d="M 162.57 114.23 L 162.04 115.75 L 135.92 107.25 L 135.87 106.39 L 136.68 105.78 L 162.57 114.23 Z M 162.57 114.23 " fill="rgb(0, 0, 0)"/>
        <path d="M 192.87 87.54 L 194.87 87.54 L 179.33 108.91 L 178.00 107.96 L 192.87 87.54 Z M 192.87 87.54 " fill="rgb(0, 0, 0)"/>
        <path d="M 186.22 87.06 L 187.50 88.01 L 174.77 105.59 L 173.44 104.64 L 186.22 87.06 Z M 186.22 87.06 " fill="rgb(0, 0, 0)"/>
        <path d="M 178.76 68.11 L 180.09 67.16 L 194.87 87.54 L 192.87 87.54 L 178.76 68.11 Z M 178.76 68.11 " fill="rgb(0, 0, 0)"/>
        <path d="M 136.68 69.25 L 135.87 68.68 L 135.92 67.82 L 162.04 59.32 L 162.57 60.84 L 136.68 69.25 Z M 136.68 69.25 " fill="rgb(0, 0, 0)"/>
        <g>
            <path d="M 30.14 126.24 C 30.14 123.53 30.87 121.40 32.33 119.87 C 33.78 118.34 35.66 117.57 37.96 117.57 C 39.47 117.57 40.83 117.93 42.04 118.65 C 43.25 119.37 44.17 120.38 44.81 121.67 C 45.44 122.95 45.76 124.41 45.76 126.05 C 45.76 127.70 45.42 129.18 44.76 130.49 C 44.09 131.80 43.14 132.79 41.92 133.46 C 40.69 134.13 39.37 134.47 37.95 134.47 C 36.41 134.47 35.04 134.09 33.83 133.35 C 32.62 132.61 31.70 131.60 31.08 130.31 C 30.45 129.03 30.14 127.67 30.14 126.24 Z M 32.37 126.26 C 32.37 128.23 32.90 129.78 33.96 130.91 C 35.02 132.04 36.34 132.61 37.94 132.61 C 39.57 132.61 40.90 132.04 41.96 130.89 C 43.01 129.75 43.53 128.13 43.53 126.03 C 43.53 124.70 43.31 123.54 42.86 122.55 C 42.41 121.56 41.75 120.79 40.89 120.25 C 40.02 119.70 39.05 119.43 37.97 119.43 C 36.44 119.43 35.13 119.95 34.02 121.00 C 32.92 122.05 32.37 123.81 32.37 126.26 Z M 32.37 126.26 " fill="rgb(0, 0, 0)"/>
        </g>
        <path d="M 48.28 123.45 L 47.47 122.02 L 72.98 107.30 L 73.79 108.72 L 48.28 123.45 Z M 48.28 123.45 " fill="rgb(0, 0, 0)"/>
        <path d="M 45.43 118.55 L 44.62 117.13 L 70.13 102.40 L 70.94 103.83 L 45.43 118.55 Z M 45.43 118.55 " fill="rgb(0, 0, 0)"/>
        <g>
            <path d="M 95.41 13.19 C 95.41 10.48 96.14 8.35 97.59 6.82 C 99.05 5.29 100.93 4.52 103.23 4.52 C 104.74 4.52 106.09 4.88 107.30 5.60 C 108.51 6.32 109.44 7.33 110.07 8.62 C 110.71 9.90 111.02 11.36 111.02 13.00 C 111.02 14.65 110.69 16.13 110.02 17.44 C 109.35 18.75 108.41 19.74 107.18 20.41 C 105.96 21.08 104.63 21.42 103.22 21.42 C 101.68 21.42 100.31 21.04 99.10 20.30 C 97.88 19.56 96.97 18.55 96.34 17.26 C 95.72 15.98 95.41 14.62 95.41 13.19 Z M 97.63 13.21 C 97.63 15.18 98.16 16.73 99.22 17.86 C 100.28 18.99 101.61 19.56 103.20 19.56 C 104.83 19.56 106.17 18.99 107.22 17.84 C 108.27 16.70 108.80 15.08 108.80 12.98 C 108.80 11.65 108.57 10.49 108.12 9.50 C 107.67 8.51 107.02 7.74 106.15 7.20 C 105.29 6.65 104.32 6.38 103.24 6.38 C 101.71 6.38 100.39 6.90 99.29 7.95 C 98.19 9.00 97.63 10.76 97.63 13.21 Z M 97.63 13.21 " fill="rgb(0, 0, 0)"/>
        </g>
        <path d="M 99.58 23.55 L 101.20 23.55 L 101.20 51.48 L 99.58 51.48 L 99.58 23.55 Z M 99.58 23.55 " fill="rgb(0, 0, 0)"/>
        <path d="M 105.23 23.55 L 106.85 23.55 L 106.85 51.48 L 105.23 51.48 L 105.23 23.55 Z M 105.23 23.55 " fill="rgb(0, 0, 0)"/>
        <path d="M 102.38 134.47 L 104.00 134.47 L 104.00 168.09 L 102.38 168.09 L 102.38 134.47 Z M 102.38 134.47 " fill="rgb(0, 0, 0)"/>
        <path d="M 32.37 44.31 L 33.20 42.93 L 62.02 60.24 L 61.19 61.63 L 32.37 44.31 Z M 32.37 44.31 " fill="rgb(0, 0, 0)"/>
        <path d="M 187.68 15.21 L 189.20 15.76 L 177.70 47.35 L 176.18 46.80 L 187.68 15.21 Z M 187.68 15.21 " fill="rgb(0, 0, 0)"/>
    </g>
</svg>